<svg width="471" height="196" viewBox="0 0 471 196" fill="none" xmlns="http://www.w3.org/2000/svg">
<path d="M2.79883 152.793V154.793H4.79883H89.0027V188.304V190.304H91.0027H117.192H119.192V188.304V154.793H141.251H143.251V152.793V129.533V127.533H141.251H119.192V6.4858V4.4858H117.192H102.857H100.857H91.1802H89.1802H83.3677H82.2668L81.6779 5.41604L3.10897 129.528L2.79883 130.018V130.598V152.793ZM36.2948 127.533L89.1802 43.8183V127.533H36.2948ZM235.481 193.322H235.49C249.827 193.322 262.213 189.548 272.544 181.923L272.55 181.919C282.858 174.249 290.669 163.223 296.043 148.971L296.044 148.968C301.419 134.657 304.073 117.478 304.073 97.4837C304.073 77.6067 301.389 60.5429 295.952 46.3461C290.578 32.097 282.767 21.1002 272.457 13.4896C262.128 5.80567 249.771 2 235.49 2C221.209 2 208.826 5.7751 198.44 13.396L198.435 13.3994C188.125 21.0096 180.284 32.0061 174.849 46.2561L174.847 46.263C169.472 60.5158 166.817 77.6067 166.817 97.4837C166.817 117.419 169.472 134.568 174.846 148.879C180.22 163.191 188.032 174.221 198.347 181.834C208.677 189.459 221.089 193.262 235.481 193.322ZM262.613 148.592L262.61 148.598C255.988 160.087 246.982 165.619 235.49 165.619C227.741 165.619 221.185 163.128 215.71 158.153C210.194 153.081 205.819 145.536 202.691 135.344C199.629 125.113 198.072 112.51 198.072 97.4889C198.131 74.9747 201.636 58.0096 208.368 46.3721C215.054 34.8136 224.063 29.2599 235.49 29.2599C243.101 29.2599 249.596 31.7966 255.08 36.8926L255.087 36.8997L255.095 36.9068C260.664 41.9744 265.039 49.5433 268.108 59.7939L268.112 59.8068C271.232 69.976 272.818 82.5196 272.818 97.4837C272.818 120.059 269.341 137.018 262.613 148.592ZM327.75 152.793V154.793H329.75H413.954V188.304V190.304H415.954H442.143H444.143V188.304V154.793H466.202H468.202V152.793V129.533V127.533H466.202H444.143V6.4858V4.4858H442.143H427.808H425.808H416.131H414.131H408.319H407.218L406.629 5.41604L328.06 129.528L327.75 130.018V130.598V152.793ZM361.246 127.533L414.131 43.8183V127.533H361.246Z" stroke="#181817" stroke-width="4"/>
</svg>
