<svg width="17" height="16" viewBox="0 0 17 16" fill="none" xmlns="http://www.w3.org/2000/svg">
<path d="M8.33399 1.44578C10.4545 1.44578 10.7436 1.44578 11.6111 1.44578C12.3822 1.44578 12.7677 1.63855 13.0569 1.73494C13.4424 1.92771 13.7316 2.0241 14.0207 2.31325C14.3099 2.60241 14.5027 2.89157 14.599 3.27711C14.6954 3.56627 14.7918 3.95181 14.8882 4.72289C14.8882 5.59036 14.8882 5.78313 14.8882 8C14.8882 10.2169 14.8882 10.4096 14.8882 11.2771C14.8882 12.0482 14.6954 12.4337 14.599 12.7229C14.4063 13.1084 14.3099 13.3976 14.0207 13.6867C13.7316 13.9759 13.4424 14.1687 13.0569 14.2651C12.7677 14.3614 12.3822 14.4578 11.6111 14.5542C10.7436 14.5542 10.5509 14.5542 8.33399 14.5542C6.11712 14.5542 5.92435 14.5542 5.05688 14.5542C4.28579 14.5542 3.90025 14.3614 3.61109 14.2651C3.22555 14.0723 2.93639 13.9759 2.64724 13.6867C2.35808 13.3976 2.16531 13.1084 2.06892 12.7229C1.97254 12.4337 1.87615 12.0482 1.77977 11.2771C1.77977 10.4096 1.77977 10.2169 1.77977 8C1.77977 5.78313 1.77977 5.59036 1.77977 4.72289C1.77977 3.95181 1.97254 3.56627 2.06892 3.27711C2.2617 2.89157 2.35808 2.60241 2.64724 2.31325C2.93639 2.0241 3.22555 1.83133 3.61109 1.73494C3.90025 1.63855 4.28579 1.54217 5.05688 1.44578C5.92435 1.44578 6.2135 1.44578 8.33399 1.44578ZM8.33399 0C6.11712 0 5.92435 0 5.05688 0C4.18941 0 3.61109 0.192772 3.12917 0.385543C2.64724 0.578314 2.16531 0.867471 1.68338 1.3494C1.20145 1.83133 1.00868 2.21687 0.719527 2.79518C0.526756 3.27711 0.43037 3.85542 0.333984 4.72289C0.333984 5.59036 0.333984 5.87952 0.333984 8C0.333984 10.2169 0.333984 10.4096 0.333984 11.2771C0.333984 12.1446 0.526756 12.7229 0.719527 13.2048C0.912298 13.6867 1.20145 14.1687 1.68338 14.6506C2.16531 15.1325 2.55085 15.3253 3.12917 15.6145C3.61109 15.8072 4.18941 15.9036 5.05688 16C5.92435 16 6.2135 16 8.33399 16C10.4545 16 10.7436 16 11.6111 16C12.4786 16 13.0569 15.8072 13.5388 15.6145C14.0207 15.4217 14.5027 15.1325 14.9846 14.6506C15.4665 14.1687 15.6593 13.7831 15.9484 13.2048C16.1412 12.7229 16.2376 12.1446 16.334 11.2771C16.334 10.4096 16.334 10.1205 16.334 8C16.334 5.87952 16.334 5.59036 16.334 4.72289C16.334 3.85542 16.1412 3.27711 15.9484 2.79518C15.7557 2.31325 15.4665 1.83133 14.9846 1.3494C14.5027 0.867471 14.1171 0.674699 13.5388 0.385543C13.0569 0.192772 12.4786 0.0963856 11.6111 0C10.7436 0 10.5509 0 8.33399 0Z" fill="#181817"/>
<path d="M8.33399 3.85542C6.02073 3.85542 4.18941 5.68675 4.18941 8C4.18941 10.3133 6.02073 12.1446 8.33399 12.1446C10.6472 12.1446 12.4786 10.3133 12.4786 8C12.4786 5.68675 10.6472 3.85542 8.33399 3.85542ZM8.33399 10.6988C6.8882 10.6988 5.63519 9.54217 5.63519 8C5.63519 6.55422 6.79182 5.30121 8.33399 5.30121C9.77977 5.30121 11.0328 6.45783 11.0328 8C11.0328 9.44578 9.77977 10.6988 8.33399 10.6988Z" fill="#181817"/>
<path d="M12.5749 4.72289C13.1073 4.72289 13.5388 4.29136 13.5388 3.75904C13.5388 3.22671 13.1073 2.79518 12.5749 2.79518C12.0426 2.79518 11.6111 3.22671 11.6111 3.75904C11.6111 4.29136 12.0426 4.72289 12.5749 4.72289Z" fill="#181817"/>
</svg>
