<svg width="17" height="17" viewBox="0 0 17 17" fill="none" xmlns="http://www.w3.org/2000/svg">
<path d="M8.6665 1.94578C10.787 1.94578 11.0761 1.94578 11.9436 1.94578C12.7147 1.94578 13.1002 2.13855 13.3894 2.23494C13.7749 2.42771 14.0641 2.5241 14.3533 2.81325C14.6424 3.10241 14.8352 3.39157 14.9316 3.77711C15.028 4.06627 15.1243 4.45181 15.2207 5.22289C15.2207 6.09036 15.2207 6.28313 15.2207 8.5C15.2207 10.7169 15.2207 10.9096 15.2207 11.7771C15.2207 12.5482 15.028 12.9337 14.9316 13.2229C14.7388 13.6084 14.6424 13.8976 14.3533 14.1867C14.0641 14.4759 13.7749 14.6687 13.3894 14.7651C13.1002 14.8614 12.7147 14.9578 11.9436 15.0542C11.0761 15.0542 10.8834 15.0542 8.6665 15.0542C6.44964 15.0542 6.25687 15.0542 5.3894 15.0542C4.61831 15.0542 4.23277 14.8614 3.94361 14.7651C3.55807 14.5723 3.26891 14.4759 2.97976 14.1867C2.6906 13.8976 2.49783 13.6084 2.40144 13.2229C2.30506 12.9337 2.20867 12.5482 2.11229 11.7771C2.11229 10.9096 2.11229 10.7169 2.11229 8.5C2.11229 6.28313 2.11229 6.09036 2.11229 5.22289C2.11229 4.45181 2.30506 4.06627 2.40144 3.77711C2.59422 3.39157 2.6906 3.10241 2.97976 2.81325C3.26891 2.5241 3.55807 2.33133 3.94361 2.23494C4.23277 2.13855 4.61831 2.04217 5.3894 1.94578C6.25687 1.94578 6.54602 1.94578 8.6665 1.94578ZM8.6665 0.5C6.44964 0.5 6.25687 0.5 5.3894 0.5C4.52193 0.5 3.94361 0.692772 3.46169 0.885543C2.97976 1.07831 2.49783 1.36747 2.0159 1.8494C1.53397 2.33133 1.3412 2.71687 1.05205 3.29518C0.859276 3.77711 0.762889 4.35542 0.666504 5.22289C0.666504 6.09036 0.666504 6.37952 0.666504 8.5C0.666504 10.7169 0.666504 10.9096 0.666504 11.7771C0.666504 12.6446 0.859276 13.2229 1.05205 13.7048C1.24482 14.1867 1.53397 14.6687 2.0159 15.1506C2.49783 15.6325 2.88337 15.8253 3.46169 16.1145C3.94361 16.3072 4.52193 16.4036 5.3894 16.5C6.25687 16.5 6.54602 16.5 8.6665 16.5C10.787 16.5 11.0761 16.5 11.9436 16.5C12.8111 16.5 13.3894 16.3072 13.8713 16.1145C14.3533 15.9217 14.8352 15.6325 15.3171 15.1506C15.799 14.6687 15.9918 14.2831 16.281 13.7048C16.4737 13.2229 16.5701 12.6446 16.6665 11.7771C16.6665 10.9096 16.6665 10.6205 16.6665 8.5C16.6665 6.37952 16.6665 6.09036 16.6665 5.22289C16.6665 4.35542 16.4737 3.77711 16.281 3.29518C16.0882 2.81325 15.799 2.33133 15.3171 1.8494C14.8352 1.36747 14.4496 1.1747 13.8713 0.885543C13.3894 0.692772 12.8111 0.596386 11.9436 0.5C11.0761 0.5 10.8834 0.5 8.6665 0.5Z" fill="white"/>
<path d="M8.6665 4.35542C6.35325 4.35542 4.52193 6.18675 4.52193 8.5C4.52193 10.8133 6.35325 12.6446 8.6665 12.6446C10.9798 12.6446 12.8111 10.8133 12.8111 8.5C12.8111 6.18675 10.9798 4.35542 8.6665 4.35542ZM8.6665 11.1988C7.22072 11.1988 5.96771 10.0422 5.96771 8.5C5.96771 7.05422 7.12434 5.80121 8.6665 5.80121C10.1123 5.80121 11.3653 6.95783 11.3653 8.5C11.3653 9.94578 10.1123 11.1988 8.6665 11.1988Z" fill="white"/>
<path d="M12.9075 5.22289C13.4398 5.22289 13.8713 4.79136 13.8713 4.25904C13.8713 3.72671 13.4398 3.29518 12.9075 3.29518C12.3751 3.29518 11.9436 3.72671 11.9436 4.25904C11.9436 4.79136 12.3751 5.22289 12.9075 5.22289Z" fill="white"/>
</svg>
