<svg width="17" height="17" viewBox="0 0 17 17" fill="none" xmlns="http://www.w3.org/2000/svg">
<g clip-path="url(#clip0_2279_1686)">
<path d="M15.8663 14.9V9.626C15.8663 7.034 15.3083 5.054 12.2843 5.054C10.8263 5.054 9.85431 5.846 9.45831 6.602H9.42231V5.288H6.56031V14.9H9.54831V10.13C9.54831 8.87 9.78231 7.664 11.3303 7.664C12.8603 7.664 12.8783 9.086 12.8783 10.202V14.882H15.8663V14.9ZM1.70031 5.288H4.68831V14.9H1.70031V5.288ZM3.19431 0.5C2.24031 0.5 1.46631 1.274 1.46631 2.228C1.46631 3.182 2.24031 3.974 3.19431 3.974C4.14831 3.974 4.92231 3.182 4.92231 2.228C4.92231 1.274 4.14831 0.5 3.19431 0.5Z" fill="white"/>
</g>
<defs>
<clipPath id="clip0_2279_1686">
<rect width="16" height="16" fill="white" transform="translate(0.666504 0.5)"/>
</clipPath>
</defs>
</svg>
