<svg width="17" height="16" viewBox="0 0 17 16" fill="none" xmlns="http://www.w3.org/2000/svg">
<path d="M15.5348 14.4V9.126C15.5348 6.534 14.9768 4.554 11.9528 4.554C10.4948 4.554 9.52277 5.346 9.12677 6.102H9.09077V4.788H6.22877V14.4H9.21677V9.63C9.21677 8.37 9.45077 7.164 10.9988 7.164C12.5288 7.164 12.5468 8.586 12.5468 9.702V14.382H15.5348V14.4ZM1.36877 4.788H4.35677V14.4H1.36877V4.788ZM2.86277 0C1.90877 0 1.13477 0.774 1.13477 1.728C1.13477 2.682 1.90877 3.474 2.86277 3.474C3.81677 3.474 4.59077 2.682 4.59077 1.728C4.59077 0.774 3.81677 0 2.86277 0Z" fill="#181817"/>
</svg>
