<svg width="100" height="100" viewBox="0 0 100 100" fill="none" xmlns="http://www.w3.org/2000/svg">
<path d="M69.2385 71.0947H90.7347V45.3795M69.2385 71.0947H61.2024V39.7543H56.7826V79.5325H61.2024V75.9163H95.1545V0.980621H2.94141V99.0198H58.9925V94.6H7.16031V44.375H39.907V39.7543H7.16031V22.7783M69.2385 71.0947V45.3795H90.7347M90.7347 45.3795V5.80222H52.9655V10.0211M7.16031 22.7783V5.80222H29.2593M7.16031 22.7783H29.2593M52.9655 10.0211V21.6734M52.9655 10.0211H64.2159V12.231M29.2593 5.80222H37.0944M29.2593 5.80222V22.7783M29.2593 22.7783H37.0944V5.80222M37.0944 5.80222H47.943V32.7228H83.9042V28.1021H52.9655V21.6734M52.9655 21.6734H64.2159V18.8607M64.2159 18.8607C64.2159 18.8607 71.2474 19.8652 71.2474 15.4454C71.2474 11.0256 64.2159 12.231 64.2159 12.231M64.2159 18.8607V12.231M34.8845 57.4336V82.3451H47.3403V57.4336H34.8845Z" stroke="#181817" stroke-width="0.980392"/>
<path d="M7.16016 53.2145H28.8573V60.8487H25.442V61.8532M25.442 61.8532H16.4015V76.318H25.442M25.442 61.8532V76.318M7.16016 86.1622H28.8573V77.5234H25.442V76.318" stroke="#181817" stroke-width="0.980392"/>
</svg>
