<svg width="100" height="100" viewBox="0 0 100 100" fill="none" xmlns="http://www.w3.org/2000/svg">
<g clip-path="url(#clip0_28_17)">
<path d="M41.084 55.4177L54.6383 47.6867M41.084 55.4177V101M41.084 55.4177L3.33301 32.8273M54.6383 47.6867L24.317 30.4605M54.6383 47.6867V84.0321M41.084 101L54.6383 94.0723V84.0321M41.084 101L3.33301 79.2129V32.8273M3.33301 32.8273L15.582 25.498L24.317 30.4605M24.317 30.4605V20.5783M54.6383 84.0321L63.2728 89.1526M63.2728 43.0683L76.2246 35.4378M63.2728 43.0683V89.1526M63.2728 43.0683L24.317 20.5783M76.2246 35.4378L46.3049 17.92M76.2246 35.4378V71.4819M63.2728 89.1526L76.2246 81.8233V71.4819M24.317 20.5783L37.4696 12.747L46.3049 17.92M46.3049 17.92V8.22892M76.2246 71.4819L84.5579 76.6024M84.5579 30.9197L96.8069 23.49M84.5579 30.9197V76.6024M84.5579 30.9197L46.3049 8.22892M96.8069 23.49V69.7751L84.5579 76.6024M96.8069 23.49L58.4535 1L46.3049 8.22892" stroke="#181817"/>
</g>
<defs>
<clipPath id="clip0_28_17">
<rect width="100" height="100" fill="white"/>
</clipPath>
</defs>
</svg>
