<svg width="16" height="16" viewBox="0 0 16 16" fill="none" xmlns="http://www.w3.org/2000/svg">
<path d="M16 8C16 9.05058 15.7931 10.0909 15.391 11.0615C14.989 12.0321 14.3997 12.914 13.6569 13.6569C12.914 14.3997 12.0321 14.989 11.0615 15.391C10.0909 15.7931 9.05058 16 8 16C6.94943 16 5.90914 15.7931 4.93853 15.391C3.96793 14.989 3.08601 14.3997 2.34315 13.6569C1.60028 12.914 1.011 12.0321 0.608964 11.0615C0.206926 10.0909 -1.56548e-08 9.05058 0 8C3.16163e-08 5.87827 0.842855 3.84344 2.34315 2.34315C3.84344 0.842855 5.87827 0 8 0C10.1217 0 12.1566 0.842855 13.6569 2.34315C15.1571 3.84344 16 5.87827 16 8Z" fill="#181817"/>
<path d="M5.3335 8.66667L7.3335 10.6667L10.6668 6" stroke="white" stroke-width="1.33333" stroke-linecap="round" stroke-linejoin="round"/>
</svg>
